<?xml version="1.0" encoding="UTF-8"?>
<!-- Created with Inkscape (http://www.inkscape.org/) -->
<svg width="38.131mm" height="37.253mm" version="1.1" viewBox="0 0 38.131 37.253" xmlns="http://www.w3.org/2000/svg">
 <path d="m18.998 0v5.17e-4c-0.53099 0.0028-1.0582 0.05486-1.5756 0.15245-3.39 0.63915-6.3432 3.1769-7.491 6.4291-0.0306 0.08667-0.0251 0.19032-0.0527 0.2806-0.90827-0.04554-1.8212 0.05013-2.991 0.41393-1.0543 0.32832-2.179 0.87534-3.0598 1.5322-1.7274 1.2882-2.9184 3.0046-3.5104 5.0808-0.21941 0.76963-0.33918 1.937-0.31368 2.882 0.0189 0.70226 0.0953 1.4556 0.21911 1.9849 0.56185 2.4001 2.1409 4.1628 4.0938 5.4839-0.42253 1.1289-0.7361 2.5636-0.70022 3.7465 0.0377 1.2376 0.44299 2.8782 0.98702 3.9631 0.35607 0.71 0.75713 1.3695 1.3591 2.035 0.0832 0.09207 0.22217 0.25025 0.23874 0.26923h3e-3c0.60258 0.6891 0.68059 0.66448 0.95291 0.88367 0.27232 0.21917 0.49336 0.40138 0.91726 0.67024 1.1874 0.75299 1.9944 1.0221 3.2355 1.2785 1.0684 0.22063 1.4363 0.15175 2.051 0.13643 0.61478-0.01537 1.1668-0.03997 1.9208-0.18397h3e-3c1.6276-0.31126 2.7568-0.99766 3.8881-1.8898 0.83798 0.64255 1.6936 1.2833 2.6929 1.6175 1.356 0.45335 2.8808 0.59113 4.2917 0.40618 0.57232-0.07514 1.3148-0.24448 1.8371-0.41703 2.1466-0.70909 3.9782-2.1822 5.1397-4.116 0.56733-0.94467 0.90201-1.7302 1.17-2.8189v-0.0025c0.11555-0.46984 0.21406-1.389 0.21705-2.1213 3e-3 -0.74198-0.0982-1.6807-0.21188-2.1616v-0.0031c-0.0887-0.37413-0.37452-0.65631-0.50849-1.0139 0.6417-0.43094 1.3461-0.98643 1.8402-1.5291 0.61773-0.67855 1.1768-1.5193 1.573-2.3404 0.54477-1.129 0.91356-2.8169 0.91726-4.1134 4e-3 -1.3586-0.37931-3.1152-0.9865-4.2778-0.76618-1.467-1.9846-2.8821-3.3657-3.7936-1.6749-1.1054-3.5723-1.4447-5.4839-1.3901-0.0306-0.11584-0.0147-0.25957-0.0506-0.36949-0.4225-1.2947-0.64329-1.6287-1.3235-2.5823-0.98857-1.3861-1.8127-2.1797-3.4298-3.0184-1.38-0.71578-2.9125-1.1105-4.486-1.1007l3e-3 -0.0031c-1e-3 1.4e-5 -4e-3 -1.4e-5 -6e-3 0-9.3e-4 0-1e-3 -1.4e-5 -3e-3 0zm0.0305 4.0933c0.8601-0.0057 1.7444 0.21404 2.5781 0.64647 0.638 0.33092 1.524 1.1172 1.9828 1.7606 0.25778 0.36141 0.64627 1.1095 0.76481 1.4728 0.15495 0.47534 0.20218 0.8791 0.2036 1.7317 1e-3 0.71128-7e-3 0.83777-0.0786 1.1126-0.13591 0.52465-0.16959 0.60872-0.72605 1.8283-0.0764 0.16738-0.24927 0.52595-0.38447 0.79633-0.16029 0.32042-0.23227 0.50188-0.21032 0.52762l5.1e-4 5.17e-4 5.2e-4 5.16e-4c2.3e-4 1.37e-4 1e-3 4.04e-4 2e-3 5.17e-4 2.7e-4 9e-5 1e-3 4.51e-4 2e-3 5.17e-4 0.0379 0.0051 0.23217-0.16614 0.56844-0.50074 1.222-1.2158 1.7028-1.6046 2.3792-1.926 1.739-0.82628 3.8524-0.6952 5.4147 0.3359 0.86649 0.57188 1.4494 1.2376 1.9901 2.2727 0.41379 0.79228 0.52633 1.3037 0.52348 2.3699-3e-3 1.0448-0.10009 1.4923-0.5116 2.3451-0.26152 0.54198-0.53561 0.95176-0.91208 1.3653-0.4118 0.45231-0.67781 0.67324-1.1994 0.99684-0.67053 0.41598-1.2892 0.6363-2.1379 0.76068-0.61909 0.09079-0.93921 0.07195-2.8996-0.1664-0.24033-0.02917-0.41123-0.03271-0.4868-0.01137-0.1147 0.03316-0.10841 0.03745 0.4067 0.31316 0.28772 0.15399 0.66985 0.35652 0.84853 0.44958 1.6857 0.87825 2.7843 2.2252 3.1812 3.9011 0.0976 0.41158 0.1031 0.48378 0.10025 1.2041-3e-3 0.70006-0.0116 0.79904-0.10025 1.1596-0.12751 0.51796-0.41836 1.2181-0.70229 1.6909-0.66726 1.1109-1.6923 1.9334-2.9135 2.3368-0.44267 0.14622-0.58449 0.17751-1.0868 0.2434-0.86416 0.11328-1.6557 0.03971-2.4608-0.22944-1.5778-0.52755-2.7458-1.622-3.3745-3.16-0.12252-0.29991-0.29002-0.99284-0.4439-1.8412-0.14551-0.80215-0.26778-1.3519-0.31161-1.3994-1e-3 -0.0011-3e-3 -0.0024-4e-3 -0.0031-2.7e-4 -1.36e-4 -1e-3 -4.09e-4 -2e-3 -5.17e-4 -5.4e-4 -1.62e-4 -2e-3 -4.61e-4 -3e-3 -5.17e-4 -2.8e-4 -1e-6 -1e-3 -2.4e-5 -2e-3 0-0.0145 0.0026-0.0312 0.03993-0.0393 0.09509-0.25773 1.6402-0.4122 2.451-0.53744 2.822-0.10887 0.32224-0.47468 1.0554-0.67644 1.356-0.24009 0.35773-0.7282 0.90721-1.0046 1.1302-0.71212 0.57454-1.5672 1.0058-2.2526 1.1369-0.63303 0.12096-1.9223 0.15381-2.3771 0.05994-0.60134-0.12424-1.423-0.4442-1.8707-0.72812-0.27763-0.17609-0.84211-0.63084-0.98185-0.79065-0.0588-0.06717-0.18729-0.21101-0.28577-0.31988-0.25305-0.27979-0.50682-0.66828-0.73536-1.124-0.42607-0.84966-0.52558-1.2523-0.55604-2.2531-0.032-1.0548 0.0531-1.5293 0.42995-2.3812 0.33478-0.75696 0.74733-1.3469 1.3172-1.8867 0.25394-0.24054 0.80828-0.63647 1.1581-0.82682 0.0902-0.0491 0.3936-0.2129 0.67438-0.3638 0.85724-0.46066 1.0188-0.56079 0.94464-0.58911-0.064-0.02433-0.14391-0.01958-0.79788 0.05271-0.18049 0.02006-0.62397 0.0683-0.98495 0.108-0.78417 0.0861-1.0081 0.08899-1.5384 0.01912-0.5146-0.06788-0.86966-0.1482-1.2201-0.27699-1.7032-0.62571-3.0762-2.1619-3.482-3.8954-0.0754-0.32236-0.0948-0.51465-0.11214-1.1607-0.0226-0.83875 3e-3 -1.1052 0.15916-1.6511 0.32213-1.1298 1.0718-2.2142 2.0185-2.9202 0.5555-0.41429 1.0663-0.66743 1.8304-0.90537 0.74791-0.23253 2.0976-0.23479 2.8996-0.0057 1.2332 0.35314 1.7874 0.73769 3.5197 2.4433 0.27254 0.26833 0.41623 0.40837 0.45062 0.39739 2.6e-4 -1.1e-4 1e-3 -9.03e-4 2e-3 -1e-3 2.4e-4 -1.51e-4 1e-3 -8.63e-4 1e-3 -1e-3l1e-3 -1e-3c0.0229-0.02956-0.0707-0.2243-0.25632-0.6103-0.2137-0.44427-0.4276-0.91525-0.82786-1.8231-0.2744-0.6224-0.38976-1.3758-0.34778-2.2608 0.0272-0.5709 0.0945-0.95378 0.24495-1.3798 0.71838-2.0355 2.2714-3.3687 4.3878-3.7677 0.27851-0.05251 0.56232-0.08023 0.84904-0.08165zm0.077 11.175c-0.27636 0.0028-0.55258 0.02224-0.7214 0.05426-0.74904 0.14216-1.523 0.51551-2.0443 0.9865-0.59522 0.53777-0.97051 1.1052-1.2309 1.8583l-0.13849 0.39894-0.0114 0.8568c-0.0128 0.97692 8e-3 1.1253 0.2589 1.7141 0.59536 1.4021 1.837 2.356 3.2902 2.5285 0.21945 0.02604 0.6674 0.02038 1.1291-0.01292 0.90879-0.06646 1.5826-0.37255 2.3316-1.0583 0.54543-0.49929 0.78214-0.83238 1.0924-1.542 0.14454-0.33065 0.24799-0.84038 0.26819-1.3234 0.0431-1.0318-0.16843-1.8095-0.71468-2.6262-0.22324-0.33377-0.72781-0.85358-1.0304-1.0614-0.4825-0.33139-1.2555-0.65608-1.7539-0.73691-0.17082-0.0286-0.44813-0.03851-0.7245-0.03566z" fill="#f02004"/>
</svg>
